<svg width="28" height="24" viewBox="0 0 28 24" fill="none" xmlns="http://www.w3.org/2000/svg">
<path d="M28 4H23.9C23.4 1.7 21.4 0 19 0C16.6 0 14.6 1.7 14.1 4H0V6H14.1C14.6 8.3 16.6 10 19 10C21.4 10 23.4 8.3 23.9 6H28V4ZM19 8C17.3 8 16 6.7 16 5C16 3.3 17.3 2 19 2C20.7 2 22 3.3 22 5C22 6.7 20.7 8 19 8ZM0 20H4.1C4.6 22.3 6.6 24 9 24C11.4 24 13.4 22.3 13.9 20H28V18H13.9C13.4 15.7 11.4 14 9 14C6.6 14 4.6 15.7 4.1 18H0V20ZM9 16C10.7 16 12 17.3 12 19C12 20.7 10.7 22 9 22C7.3 22 6 20.7 6 19C6 17.3 7.3 16 9 16Z" fill="white"/>
</svg>
