<svg width="29" height="23" viewBox="0 0 29 23" fill="none" xmlns="http://www.w3.org/2000/svg">
<path d="M19 1V4V1ZM19 10V13V10ZM19 19V22V19ZM4 1C3.20435 1 2.44129 1.31607 1.87868 1.87868C1.31607 2.44129 1 3.20435 1 4V8.5C1.79565 8.5 2.55871 8.81607 3.12132 9.37868C3.68393 9.94129 4 10.7044 4 11.5C4 12.2956 3.68393 13.0587 3.12132 13.6213C2.55871 14.1839 1.79565 14.5 1 14.5V19C1 19.7956 1.31607 20.5587 1.87868 21.1213C2.44129 21.6839 3.20435 22 4 22H25C25.7956 22 26.5587 21.6839 27.1213 21.1213C27.6839 20.5587 28 19.7956 28 19V14.5C27.2044 14.5 26.4413 14.1839 25.8787 13.6213C25.3161 13.0587 25 12.2956 25 11.5C25 10.7044 25.3161 9.94129 25.8787 9.37868C26.4413 8.81607 27.2044 8.5 28 8.5V4C28 3.20435 27.6839 2.44129 27.1213 1.87868C26.5587 1.31607 25.7956 1 25 1H4Z" stroke="white" stroke-width="2" stroke-linecap="round" stroke-linejoin="round"/>
</svg>
