<svg width="24" height="26" viewBox="0 0 24 26" fill="none" xmlns="http://www.w3.org/2000/svg">
<path d="M16.8 23.6364V21.2727H21.6V9.45455H4.8V14.1818H2.4V4.72727C2.4 4.07727 2.6348 3.52103 3.1044 3.05855C3.5748 2.59527 4.14 2.36364 4.8 2.36364H6V0H8.4V2.36364H18V0H20.4V2.36364H21.6C22.26 2.36364 22.8252 2.59527 23.2956 3.05855C23.7652 3.52103 24 4.07727 24 4.72727V21.2727C24 21.9227 23.7652 22.4794 23.2956 22.9426C22.8252 23.4051 22.26 23.6364 21.6 23.6364H16.8ZM8.4 26L6.72 24.3455L9.81 21.2727H0V18.9091H9.81L6.72 15.8364L8.4 14.1818L14.4 20.0909L8.4 26Z" fill="white"/>
</svg>
