<svg version="1.0" xmlns="http://www.w3.org/2000/svg"
 width="512.000000pt" height="512.000000pt" viewBox="0 0 512.000000 512.000000"
 preserveAspectRatio="xMidYMid meet">

<g transform="translate(0.000000,512.000000) scale(0.100000,-0.100000)"
fill="#000000" stroke="none">
<path d="M4100 4309 c-14 -5 -145 -130 -291 -276 l-267 -266 -108 46 c-417
175 -854 227 -1253 151 -579 -111 -1168 -457 -1716 -1008 -163 -165 -279 -299
-297 -345 -16 -42 -4 -106 30 -151 64 -88 279 -315 408 -432 183 -165 339
-289 519 -410 83 -55 152 -102 155 -105 2 -2 -100 -108 -227 -236 -128 -128
-237 -245 -243 -260 -17 -47 -12 -101 13 -138 48 -72 126 -97 200 -65 19 8
699 681 1659 1643 1454 1455 1627 1632 1633 1666 24 129 -95 233 -215 186z
m-1403 -964 c44 -8 108 -26 142 -40 69 -27 151 -72 151 -83 0 -9 -1083 -1092
-1092 -1092 -11 0 -56 81 -83 151 -105 266 -52 573 135 794 187 220 471 322
747 270z"/>
<path d="M3727 3052 l-377 -377 6 -81 c21 -265 -126 -549 -364 -705 -133 -87
-251 -122 -425 -123 l-127 -2 -265 -264 c-146 -146 -265 -267 -265 -270 0 -18
308 -84 464 -99 636 -62 1310 193 1971 745 226 189 559 534 601 622 25 54 14
112 -33 174 -69 91 -274 309 -398 421 -111 102 -361 308 -396 327 -12 7 -99
-75 -392 -368z"/>
</g>
</svg>